<svg width="100" height="100" viewBox="0 0 100 100" fill="none" xmlns="http://www.w3.org/2000/svg">
<path opacity="0.1" d="M16.3341 16.3337C15.4011 15.4006 13.8835 15.3969 12.996 16.3735C5.46074 24.6653 0.912344 35.2695 0.123162 46.4922C-0.722008 58.511 2.8012 70.4309 10.0447 80.059C17.2881 89.6871 27.7647 96.3758 39.547 98.8947C51.3293 101.414 63.6249 99.5932 74.172 93.7684C84.719 87.9437 92.808 78.5063 96.9511 67.1925C101.094 55.8786 101.012 43.4492 96.721 32.1908C92.4296 20.9324 84.2172 11.6022 73.5945 5.91664C63.6755 0.607695 52.2779 -1.19011 41.2468 0.771633C39.9476 1.00267 39.1425 2.28907 39.4353 3.57574V3.57574C39.7281 4.86241 41.008 5.66146 42.3083 5.43698C52.2151 3.72678 62.4359 5.36423 71.3395 10.1297C80.947 15.2719 88.3745 23.7104 92.2558 33.8928C96.137 44.0753 96.2109 55.3168 92.4639 65.5493C88.7168 75.7819 81.4009 84.3173 71.8618 89.5854C62.3228 94.8534 51.2022 96.4998 40.546 94.2217C29.8897 91.9435 20.4145 85.8941 13.8633 77.1862C7.31206 68.4782 4.12557 57.6976 4.88996 46.8274C5.59836 36.7535 9.65577 27.2307 16.3793 19.7566C17.2619 18.7756 17.2672 17.2667 16.3341 16.3337V16.3337Z" fill="#2F2F2F"/>
<path d="M28.6048 42.9995V45.5995H31.4048V56.9995H34.6448V42.9995H28.6048ZM43.8769 48.2595H42.7369L42.9569 45.5995H48.7969V42.9995H40.2569L39.5369 50.8795H43.1169C45.6569 50.8795 46.3769 51.5995 46.3769 52.6995C46.3769 53.8395 45.3769 54.5195 43.7569 54.5195C42.2969 54.5195 40.8369 54.0595 39.7769 53.2595L38.4969 55.7395C39.8569 56.6995 41.8969 57.2395 43.8369 57.2395C47.8369 57.2395 49.6569 55.0795 49.6569 52.5995C49.6569 50.1195 48.0169 48.2595 43.8769 48.2595ZM56.0161 50.5595C58.0561 50.5595 59.4761 49.0795 59.4761 46.6995C59.4761 44.3195 58.0561 42.8395 56.0161 42.8395C53.9761 42.8395 52.5361 44.3395 52.5361 46.6995C52.5361 49.0595 53.9761 50.5595 56.0161 50.5595ZM54.7961 56.9995H57.1761L66.7361 42.9995H64.3561L54.7961 56.9995ZM56.0161 48.9195C55.1561 48.9195 54.5561 48.1795 54.5561 46.6995C54.5561 45.2195 55.1561 44.4795 56.0161 44.4795C56.8961 44.4795 57.4761 45.1995 57.4761 46.6995C57.4761 48.1995 56.8961 48.9195 56.0161 48.9195ZM65.5161 57.1595C67.5561 57.1595 68.9961 55.6595 68.9961 53.2995C68.9961 50.9395 67.5561 49.4395 65.5161 49.4395C63.4961 49.4395 62.0561 50.9395 62.0561 53.2995C62.0561 55.6595 63.4961 57.1595 65.5161 57.1595ZM65.5161 55.5195C64.6561 55.5195 64.0561 54.7995 64.0561 53.2995C64.0561 51.7995 64.6561 51.0795 65.5161 51.0795C66.3961 51.0795 66.9761 51.8195 66.9761 53.2995C66.9761 54.7795 66.3961 55.5195 65.5161 55.5195Z" fill="#2F2F2F"/>
<path d="M50 2.38045C50 1.06549 48.9334 -0.00641214 47.6199 0.0561792C40.5355 0.393773 33.5943 2.23536 27.2616 5.46902C20.9289 8.70267 15.367 13.2455 10.9394 18.7862C10.1185 19.8134 10.3614 21.306 11.4266 22.0771V22.0771C12.4917 22.8481 13.9755 22.6052 14.8015 21.5821C18.784 16.6492 23.765 12.6012 29.4271 9.71001C35.0893 6.81879 41.289 5.15755 47.6201 4.82404C48.9332 4.75486 50 3.69541 50 2.38045V2.38045Z" fill="#FFC464"/>
</svg>
