<svg width="100" height="100" viewBox="0 0 100 100" fill="none" xmlns="http://www.w3.org/2000/svg">
<path opacity="0.1" d="M16.3341 16.3337C15.4011 15.4006 13.8835 15.3969 12.996 16.3735C5.46074 24.6653 0.912344 35.2695 0.123162 46.4922C-0.722008 58.511 2.8012 70.4309 10.0447 80.059C17.2881 89.6871 27.7647 96.3758 39.547 98.8947C51.3293 101.414 63.6249 99.5932 74.172 93.7684C84.719 87.9437 92.808 78.5063 96.9511 67.1925C101.094 55.8786 101.012 43.4492 96.721 32.1908C92.4296 20.9324 84.2172 11.6022 73.5945 5.91664C63.6755 0.607695 52.2779 -1.19011 41.2468 0.771633C39.9476 1.00267 39.1425 2.28907 39.4353 3.57574V3.57574C39.7281 4.86241 41.008 5.66146 42.3083 5.43698C52.2151 3.72678 62.4359 5.36423 71.3395 10.1297C80.947 15.2719 88.3745 23.7104 92.2558 33.8928C96.137 44.0753 96.2109 55.3168 92.4639 65.5493C88.7168 75.7819 81.4009 84.3173 71.8618 89.5854C62.3228 94.8534 51.2022 96.4998 40.546 94.2217C29.8897 91.9435 20.4145 85.8941 13.8633 77.1862C7.31206 68.4782 4.12557 57.6976 4.88996 46.8274C5.59836 36.7535 9.65577 27.2307 16.3793 19.7566C17.2619 18.7756 17.2672 17.2667 16.3341 16.3337V16.3337Z" fill="#2F2F2F"/>
<path d="M31.2845 54.3595L34.5045 51.3195C36.4645 49.4995 36.8445 48.2595 36.8445 46.8995C36.8445 44.3595 34.7645 42.7595 31.6445 42.7595C29.1245 42.7595 27.1645 43.7795 26.0845 45.3595L28.4445 46.8795C29.1245 45.9395 30.1445 45.4795 31.3445 45.4795C32.8245 45.4795 33.5845 46.1195 33.5845 47.2195C33.5845 47.8995 33.3645 48.6195 32.1245 49.7995L26.7245 54.8995V56.9995H37.3045V54.3595H31.2845ZM46.6023 57.2395C50.0623 57.2395 52.6023 54.6195 52.6023 49.9995C52.6023 45.3795 50.0623 42.7595 46.6023 42.7595C43.1623 42.7595 40.6023 45.3795 40.6023 49.9995C40.6023 54.6195 43.1623 57.2395 46.6023 57.2395ZM46.6023 54.4995C45.0023 54.4995 43.8823 53.1795 43.8823 49.9995C43.8823 46.8195 45.0023 45.4995 46.6023 45.4995C48.2223 45.4995 49.3423 46.8195 49.3423 49.9995C49.3423 53.1795 48.2223 54.4995 46.6023 54.4995ZM59.4165 50.5595C61.4565 50.5595 62.8765 49.0795 62.8765 46.6995C62.8765 44.3195 61.4565 42.8395 59.4165 42.8395C57.3765 42.8395 55.9365 44.3395 55.9365 46.6995C55.9365 49.0595 57.3765 50.5595 59.4165 50.5595ZM58.1965 56.9995H60.5765L70.1365 42.9995H67.7565L58.1965 56.9995ZM59.4165 48.9195C58.5565 48.9195 57.9565 48.1795 57.9565 46.6995C57.9565 45.2195 58.5565 44.4795 59.4165 44.4795C60.2965 44.4795 60.8765 45.1995 60.8765 46.6995C60.8765 48.1995 60.2965 48.9195 59.4165 48.9195ZM68.9165 57.1595C70.9565 57.1595 72.3965 55.6595 72.3965 53.2995C72.3965 50.9395 70.9565 49.4395 68.9165 49.4395C66.8965 49.4395 65.4565 50.9395 65.4565 53.2995C65.4565 55.6595 66.8965 57.1595 68.9165 57.1595ZM68.9165 55.5195C68.0565 55.5195 67.4565 54.7995 67.4565 53.2995C67.4565 51.7995 68.0565 51.0795 68.9165 51.0795C69.7965 51.0795 70.3765 51.8195 70.3765 53.2995C70.3765 54.7795 69.7965 55.5195 68.9165 55.5195Z" fill="#2F2F2F"/>
<path d="M50 2.38045C50 1.06549 48.9332 -0.00641143 47.6198 0.0561702C37.9124 0.518688 28.5307 3.80224 20.6369 9.52967C12.743 15.2571 6.71089 23.1571 3.25952 32.242C2.79253 33.4712 3.48058 34.8179 4.73066 35.2259V35.2259C5.98073 35.6338 7.3189 34.9483 7.79205 33.7214C10.9276 25.5908 16.3527 18.5213 23.4334 13.3839C30.514 8.24652 38.9177 5.28238 47.62 4.82403C48.9331 4.75486 50 3.69541 50 2.38045V2.38045Z" fill="#FFC464"/>
</svg>
