<svg width="100" height="100" viewBox="0 0 100 100" fill="none" xmlns="http://www.w3.org/2000/svg">
<path opacity="0.1" d="M6.66228 30.286C5.46115 29.7396 4.03875 30.2687 3.55036 31.4945C-0.248175 41.0288 -1.02751 51.5223 1.35137 61.5456C3.91453 72.3453 9.99842 81.9851 18.6443 88.9459C27.2902 95.9067 38.0065 99.7927 49.1044 99.9915C60.2023 100.19 71.0509 96.6906 79.9406 90.044C88.8303 83.3973 95.2555 73.9816 98.2039 63.2806C101.152 52.5797 100.456 41.2018 96.2249 30.9401C91.9938 20.6785 84.4685 12.1164 74.8347 6.60325C65.8936 1.48646 55.6082 -0.734093 45.3889 0.212568C44.0749 0.334284 43.1652 1.54895 43.3495 2.85558V2.85558C43.5338 4.16221 44.7425 5.06537 46.057 4.95029C55.2248 4.14771 64.441 6.16088 72.4612 10.7507C81.1743 15.737 87.9804 23.4807 91.8071 32.7617C95.6338 42.0426 96.2635 52.3331 93.5969 62.0113C90.9304 71.6896 85.1192 80.2055 77.0791 86.2169C69.0391 92.2283 59.2273 95.3935 49.19 95.2137C39.1527 95.0339 29.4606 91.5193 21.641 85.2237C13.8214 78.9282 8.31898 70.2097 6.00079 60.4421C3.86691 51.4511 4.54274 42.0418 7.90563 33.4755C8.38783 32.2471 7.86342 30.8324 6.66228 30.286V30.286Z" fill="#2F2F2F"/>
<path d="M31.7024 54.3595L34.9224 51.3195C36.8824 49.4995 37.2624 48.2595 37.2624 46.8995C37.2624 44.3595 35.1824 42.7595 32.0624 42.7595C29.5424 42.7595 27.5824 43.7795 26.5024 45.3595L28.8624 46.8795C29.5424 45.9395 30.5624 45.4795 31.7624 45.4795C33.2424 45.4795 34.0024 46.1195 34.0024 47.2195C34.0024 47.8995 33.7824 48.6195 32.5424 49.7995L27.1424 54.8995V56.9995H37.7224V54.3595H31.7024ZM45.8593 48.2595H44.7193L44.9393 45.5995H50.7793V42.9995H42.2393L41.5193 50.8795H45.0993C47.6393 50.8795 48.3593 51.5995 48.3593 52.6995C48.3593 53.8395 47.3593 54.5195 45.7393 54.5195C44.2793 54.5195 42.8193 54.0595 41.7593 53.2595L40.4793 55.7395C41.8393 56.6995 43.8793 57.2395 45.8193 57.2395C49.8193 57.2395 51.6393 55.0795 51.6393 52.5995C51.6393 50.1195 49.9993 48.2595 45.8593 48.2595ZM57.9985 50.5595C60.0385 50.5595 61.4585 49.0795 61.4585 46.6995C61.4585 44.3195 60.0385 42.8395 57.9985 42.8395C55.9585 42.8395 54.5185 44.3395 54.5185 46.6995C54.5185 49.0595 55.9585 50.5595 57.9985 50.5595ZM56.7785 56.9995H59.1585L68.7185 42.9995H66.3385L56.7785 56.9995ZM57.9985 48.9195C57.1385 48.9195 56.5385 48.1795 56.5385 46.6995C56.5385 45.2195 57.1385 44.4795 57.9985 44.4795C58.8785 44.4795 59.4585 45.1995 59.4585 46.6995C59.4585 48.1995 58.8785 48.9195 57.9985 48.9195ZM67.4985 57.1595C69.5385 57.1595 70.9785 55.6595 70.9785 53.2995C70.9785 50.9395 69.5385 49.4395 67.4985 49.4395C65.4785 49.4395 64.0385 50.9395 64.0385 53.2995C64.0385 55.6595 65.4785 57.1595 67.4985 57.1595ZM67.4985 55.5195C66.6385 55.5195 66.0385 54.7995 66.0385 53.2995C66.0385 51.7995 66.6385 51.0795 67.4985 51.0795C68.3785 51.0795 68.9585 51.8195 68.9585 53.2995C68.9585 54.7795 68.3785 55.5195 67.4985 55.5195Z" fill="#2F2F2F"/>
<path d="M50 2.38045C50 1.06549 48.9334 -0.00641212 47.6199 0.0561809C41.8668 0.330344 36.1981 1.59684 30.8658 3.80553C24.7995 6.31827 19.2876 10.0012 14.6447 14.6442C10.0017 19.2871 6.31876 24.7991 3.80603 30.8653C1.59734 36.1976 0.330846 41.8663 0.0566855 47.6194C-0.00590686 48.9329 1.06599 49.9995 2.38096 49.9995V49.9995C3.69592 49.9995 4.75537 48.9328 4.82454 47.6196C5.09466 42.4922 6.2361 37.4421 8.20544 32.6876C10.4789 27.1991 13.8111 22.2121 18.0118 18.0113C22.2126 13.8106 27.1996 10.4784 32.6881 8.20495C37.4425 6.2356 42.4927 5.09415 47.6201 4.82404C48.9333 4.75486 50 3.69541 50 2.38045V2.38045Z" fill="#FFC464"/>
</svg>
