<svg width="100" height="100" viewBox="0 0 100 100" fill="none" xmlns="http://www.w3.org/2000/svg">
<path opacity="0.1" d="M16.3341 16.3337C15.4011 15.4006 13.8835 15.3969 12.996 16.3735C5.46074 24.6653 0.912344 35.2695 0.123162 46.4922C-0.722008 58.511 2.8012 70.4309 10.0447 80.059C17.2881 89.6871 27.7647 96.3758 39.547 98.8947C51.3293 101.414 63.6249 99.5932 74.172 93.7684C84.719 87.9437 92.808 78.5063 96.9511 67.1925C101.094 55.8786 101.012 43.4492 96.721 32.1908C92.4296 20.9324 84.2172 11.6022 73.5945 5.91664C63.6755 0.607695 52.2779 -1.19011 41.2468 0.771633C39.9476 1.00267 39.1425 2.28907 39.4353 3.57574V3.57574C39.7281 4.86241 41.008 5.66146 42.3083 5.43698C52.2151 3.72678 62.4359 5.36423 71.3395 10.1297C80.947 15.2719 88.3745 23.7104 92.2558 33.8928C96.137 44.0753 96.2109 55.3168 92.4639 65.5493C88.7168 75.7819 81.4009 84.3173 71.8618 89.5854C62.3228 94.8534 51.2022 96.4998 40.546 94.2217C29.8897 91.9435 20.4145 85.8941 13.8633 77.1862C7.31206 68.4782 4.12557 57.6976 4.88996 46.8274C5.59836 36.7535 9.65577 27.2307 16.3793 19.7566C17.2619 18.7756 17.2672 17.2667 16.3341 16.3337V16.3337Z" fill="#2F2F2F"/>
<path d="M38.6488 51.4195H36.3688V48.7995H33.3088V51.4195H29.5488L35.6688 42.9995H32.2688L25.6688 51.8795V54.0595H33.2088V56.9995H36.3688V54.0595H38.6488V51.4195ZM47.6179 57.2395C51.0779 57.2395 53.6179 54.6195 53.6179 49.9995C53.6179 45.3795 51.0779 42.7595 47.6179 42.7595C44.1779 42.7595 41.6179 45.3795 41.6179 49.9995C41.6179 54.6195 44.1779 57.2395 47.6179 57.2395ZM47.6179 54.4995C46.0179 54.4995 44.8979 53.1795 44.8979 49.9995C44.8979 46.8195 46.0179 45.4995 47.6179 45.4995C49.2379 45.4995 50.3579 46.8195 50.3579 49.9995C50.3579 53.1795 49.2379 54.4995 47.6179 54.4995ZM60.4321 50.5595C62.4721 50.5595 63.8921 49.0795 63.8921 46.6995C63.8921 44.3195 62.4721 42.8395 60.4321 42.8395C58.3921 42.8395 56.9521 44.3395 56.9521 46.6995C56.9521 49.0595 58.3921 50.5595 60.4321 50.5595ZM59.2121 56.9995H61.5921L71.1521 42.9995H68.7721L59.2121 56.9995ZM60.4321 48.9195C59.5721 48.9195 58.9721 48.1795 58.9721 46.6995C58.9721 45.2195 59.5721 44.4795 60.4321 44.4795C61.3121 44.4795 61.8921 45.1995 61.8921 46.6995C61.8921 48.1995 61.3121 48.9195 60.4321 48.9195ZM69.9321 57.1595C71.9721 57.1595 73.4121 55.6595 73.4121 53.2995C73.4121 50.9395 71.9721 49.4395 69.9321 49.4395C67.9121 49.4395 66.4721 50.9395 66.4721 53.2995C66.4721 55.6595 67.9121 57.1595 69.9321 57.1595ZM69.9321 55.5195C69.0721 55.5195 68.4721 54.7995 68.4721 53.2995C68.4721 51.7995 69.0721 51.0795 69.9321 51.0795C70.8121 51.0795 71.3921 51.8195 71.3921 53.2995C71.3921 54.7795 70.8121 55.5195 69.9321 55.5195Z" fill="#2F2F2F"/>
<path d="M50 2.38045C50 1.06549 48.9332 -0.00641143 47.6198 0.0561701C37.9034 0.519116 28.5135 3.80832 20.6154 9.54528C12.0739 15.7495 5.71533 24.4982 2.45073 34.5377C-0.813865 44.5773 -0.816971 55.3925 2.44186 65.434C5.45523 74.7191 11.1147 82.9019 18.7005 88.9911C19.7259 89.8142 21.2191 89.5747 21.9925 88.5113V88.5113C22.7659 87.4478 22.5262 85.9635 21.5049 85.1352C14.7302 79.6411 9.67416 72.2927 6.9712 63.964C4.02273 54.8789 4.02554 45.0937 6.97923 36.0103C9.93291 26.9269 15.6859 19.0114 23.4139 13.3981C30.4985 8.25206 38.9096 5.28281 47.62 4.82403C48.9331 4.75486 50 3.69541 50 2.38045V2.38045Z" fill="#FFC464"/>
</svg>
