<svg width="100" height="100" viewBox="0 0 100 100" fill="none" xmlns="http://www.w3.org/2000/svg">
<path opacity="0.1" d="M40.4316 3.36019C40.1664 2.06755 38.9016 1.22895 37.6231 1.55554C25.7344 4.59251 15.346 11.9071 8.47875 22.143C1.16675 33.0418 -1.56684 46.3786 0.867911 59.2752C3.30266 72.1718 10.7105 83.594 21.4928 91.0768C32.2751 98.5596 45.5672 101.503 58.5005 99.2716C71.4338 97.0404 82.9713 89.8134 90.623 79.1503C98.2748 68.4872 101.427 55.2432 99.3999 42.2763C97.3727 29.3094 90.3283 17.6595 79.7871 9.84075C69.8871 2.49758 57.6483 -0.913332 45.4292 0.208817C44.1152 0.329493 43.2045 1.54341 43.3878 2.85019V2.85019C43.5711 4.15697 44.779 5.06111 46.0936 4.94707C57.0692 3.99499 68.0479 7.08299 76.9403 13.6788C86.4741 20.7503 92.8452 31.2868 94.6787 43.0144C96.5122 54.742 93.6611 66.7203 86.7406 76.3643C79.8202 86.0083 69.3854 92.5446 57.6881 94.5626C45.9908 96.5807 33.9691 93.9186 24.2173 87.1509C14.4655 80.3833 7.7656 70.0527 5.56353 58.3887C3.36147 46.7247 5.83381 34.6625 12.447 24.8053C18.6153 15.6112 27.9247 9.02305 38.5848 6.2425C39.8617 5.90945 40.6968 4.65284 40.4316 3.36019V3.36019Z" fill="#2F2F2F"/>
<path d="M38.9609 48.2595H37.8209L38.0409 45.5995H43.8809V42.9995H35.3409L34.6209 50.8795H38.2009C40.7409 50.8795 41.4609 51.5995 41.4609 52.6995C41.4609 53.8395 40.4609 54.5195 38.8409 54.5195C37.3809 54.5195 35.9209 54.0595 34.8609 53.2595L33.5809 55.7395C34.9409 56.6995 36.9809 57.2395 38.9209 57.2395C42.9209 57.2395 44.7409 55.0795 44.7409 52.5995C44.7409 50.1195 43.1009 48.2595 38.9609 48.2595ZM51.1001 50.5595C53.1401 50.5595 54.5601 49.0795 54.5601 46.6995C54.5601 44.3195 53.1401 42.8395 51.1001 42.8395C49.0601 42.8395 47.6201 44.3395 47.6201 46.6995C47.6201 49.0595 49.0601 50.5595 51.1001 50.5595ZM49.8801 56.9995H52.2601L61.8201 42.9995H59.4401L49.8801 56.9995ZM51.1001 48.9195C50.2401 48.9195 49.6401 48.1795 49.6401 46.6995C49.6401 45.2195 50.2401 44.4795 51.1001 44.4795C51.9801 44.4795 52.5601 45.1995 52.5601 46.6995C52.5601 48.1995 51.9801 48.9195 51.1001 48.9195ZM60.6001 57.1595C62.6401 57.1595 64.0801 55.6595 64.0801 53.2995C64.0801 50.9395 62.6401 49.4395 60.6001 49.4395C58.5801 49.4395 57.1401 50.9395 57.1401 53.2995C57.1401 55.6595 58.5801 57.1595 60.6001 57.1595ZM60.6001 55.5195C59.7401 55.5195 59.1401 54.7995 59.1401 53.2995C59.1401 51.7995 59.7401 51.0795 60.6001 51.0795C61.4801 51.0795 62.0601 51.8195 62.0601 53.2995C62.0601 54.7795 61.4801 55.5195 60.6001 55.5195Z" fill="#2F2F2F"/>
<path d="M50 2.38045C50 1.06549 48.9334 -0.00641186 47.6199 0.0561819C43.9406 0.231522 40.2918 0.812922 36.7402 1.78978C35.4723 2.1385 34.7917 3.48881 35.2004 4.73865V4.73865C35.609 5.98849 36.9522 6.66395 38.2218 6.32158C41.2932 5.49335 44.4434 4.99139 47.6201 4.82404C48.9333 4.75486 50 3.69541 50 2.38045V2.38045Z" fill="#FFC464"/>
</svg>
