<svg width="100" height="100" viewBox="0 0 100 100" fill="none" xmlns="http://www.w3.org/2000/svg">
<path opacity="0.1" d="M40.4316 3.36019C40.1664 2.06755 38.9016 1.22895 37.6231 1.55554C25.7344 4.59251 15.346 11.9071 8.47875 22.143C1.16675 33.0418 -1.56684 46.3786 0.867911 59.2752C3.30266 72.1718 10.7105 83.594 21.4928 91.0768C32.2751 98.5596 45.5672 101.503 58.5005 99.2716C71.4338 97.0404 82.9713 89.8134 90.623 79.1503C98.2748 68.4872 101.427 55.2432 99.3999 42.2763C97.3727 29.3094 90.3283 17.6595 79.7871 9.84075C69.8871 2.49758 57.6483 -0.913332 45.4292 0.208817C44.1152 0.329493 43.2045 1.54341 43.3878 2.85019V2.85019C43.5711 4.15697 44.779 5.06111 46.0936 4.94707C57.0692 3.99499 68.0479 7.08299 76.9403 13.6788C86.4741 20.7503 92.8452 31.2868 94.6787 43.0144C96.5122 54.742 93.6611 66.7203 86.7406 76.3643C79.8202 86.0083 69.3854 92.5446 57.6881 94.5626C45.9908 96.5807 33.9691 93.9186 24.2173 87.1509C14.4655 80.3833 7.7656 70.0527 5.56353 58.3887C3.36147 46.7247 5.83381 34.6625 12.447 24.8053C18.6153 15.6112 27.9247 9.02305 38.5848 6.2425C39.8617 5.90945 40.6968 4.65284 40.4316 3.36019V3.36019Z" fill="#2F2F2F"/>
<path d="M28.1673 42.9995V45.5995H30.9673V56.9995H34.2073V42.9995H28.1673ZM44.6394 57.2395C48.0994 57.2395 50.6394 54.6195 50.6394 49.9995C50.6394 45.3795 48.0994 42.7595 44.6394 42.7595C41.1994 42.7595 38.6394 45.3795 38.6394 49.9995C38.6394 54.6195 41.1994 57.2395 44.6394 57.2395ZM44.6394 54.4995C43.0394 54.4995 41.9194 53.1795 41.9194 49.9995C41.9194 46.8195 43.0394 45.4995 44.6394 45.4995C46.2594 45.4995 47.3794 46.8195 47.3794 49.9995C47.3794 53.1795 46.2594 54.4995 44.6394 54.4995ZM57.4536 50.5595C59.4936 50.5595 60.9136 49.0795 60.9136 46.6995C60.9136 44.3195 59.4936 42.8395 57.4536 42.8395C55.4136 42.8395 53.9736 44.3395 53.9736 46.6995C53.9736 49.0595 55.4136 50.5595 57.4536 50.5595ZM56.2336 56.9995H58.6136L68.1736 42.9995H65.7936L56.2336 56.9995ZM57.4536 48.9195C56.5936 48.9195 55.9936 48.1795 55.9936 46.6995C55.9936 45.2195 56.5936 44.4795 57.4536 44.4795C58.3336 44.4795 58.9136 45.1995 58.9136 46.6995C58.9136 48.1995 58.3336 48.9195 57.4536 48.9195ZM66.9536 57.1595C68.9936 57.1595 70.4336 55.6595 70.4336 53.2995C70.4336 50.9395 68.9936 49.4395 66.9536 49.4395C64.9336 49.4395 63.4936 50.9395 63.4936 53.2995C63.4936 55.6595 64.9336 57.1595 66.9536 57.1595ZM66.9536 55.5195C66.0936 55.5195 65.4936 54.7995 65.4936 53.2995C65.4936 51.7995 66.0936 51.0795 66.9536 51.0795C67.8336 51.0795 68.4136 51.8195 68.4136 53.2995C68.4136 54.7795 67.8336 55.5195 66.9536 55.5195Z" fill="#2F2F2F"/>
<path d="M50 2.38045C50 1.06549 48.9332 -0.00641144 47.6198 0.05617C38.6806 0.482085 30.018 3.3002 22.5393 8.21538C21.4404 8.93759 21.2085 10.432 21.9822 11.4952V11.4952C22.7559 12.5585 24.2419 12.7874 25.3444 12.0708C32.0041 7.74151 39.6878 5.24182 47.62 4.82403C48.9331 4.75486 50 3.69541 50 2.38045V2.38045Z" fill="#FFC464"/>
</svg>
