<svg width="100" height="100" viewBox="0 0 100 100" fill="none" xmlns="http://www.w3.org/2000/svg">
<path opacity="0.1" d="M16.3341 16.3337C15.4011 15.4006 13.8835 15.3969 12.996 16.3735C5.46074 24.6653 0.912344 35.2695 0.123162 46.4922C-0.722008 58.511 2.8012 70.4309 10.0447 80.059C17.2881 89.6871 27.7647 96.3758 39.547 98.8947C51.3293 101.414 63.6249 99.5932 74.172 93.7684C84.719 87.9437 92.808 78.5063 96.9511 67.1925C101.094 55.8786 101.012 43.4492 96.721 32.1908C92.4296 20.9324 84.2172 11.6022 73.5945 5.91664C63.6755 0.607695 52.2779 -1.19011 41.2468 0.771633C39.9476 1.00267 39.1425 2.28907 39.4353 3.57574V3.57574C39.7281 4.86241 41.008 5.66146 42.3083 5.43698C52.2151 3.72678 62.4359 5.36423 71.3395 10.1297C80.947 15.2719 88.3745 23.7104 92.2558 33.8928C96.137 44.0753 96.2109 55.3168 92.4639 65.5493C88.7168 75.7819 81.4009 84.3173 71.8618 89.5854C62.3228 94.8534 51.2022 96.4998 40.546 94.2217C29.8897 91.9435 20.4145 85.8941 13.8633 77.1862C7.31206 68.4782 4.12557 57.6976 4.88996 46.8274C5.59836 36.7535 9.65577 27.2307 16.3793 19.7566C17.2619 18.7756 17.2672 17.2667 16.3341 16.3337V16.3337Z" fill="#2F2F2F"/>
<path d="M25.9575 42.9995V47.9195H28.8375V45.6395H33.4775L28.4575 56.9995H31.9775L37.1775 45.0995V42.9995H25.9575ZM46.2292 57.2395C49.6892 57.2395 52.2292 54.6195 52.2292 49.9995C52.2292 45.3795 49.6892 42.7595 46.2292 42.7595C42.7892 42.7595 40.2292 45.3795 40.2292 49.9995C40.2292 54.6195 42.7892 57.2395 46.2292 57.2395ZM46.2292 54.4995C44.6292 54.4995 43.5092 53.1795 43.5092 49.9995C43.5092 46.8195 44.6292 45.4995 46.2292 45.4995C47.8492 45.4995 48.9692 46.8195 48.9692 49.9995C48.9692 53.1795 47.8492 54.4995 46.2292 54.4995ZM59.0434 50.5595C61.0834 50.5595 62.5034 49.0795 62.5034 46.6995C62.5034 44.3195 61.0834 42.8395 59.0434 42.8395C57.0034 42.8395 55.5634 44.3395 55.5634 46.6995C55.5634 49.0595 57.0034 50.5595 59.0434 50.5595ZM57.8234 56.9995H60.2034L69.7634 42.9995H67.3834L57.8234 56.9995ZM59.0434 48.9195C58.1834 48.9195 57.5834 48.1795 57.5834 46.6995C57.5834 45.2195 58.1834 44.4795 59.0434 44.4795C59.9234 44.4795 60.5034 45.1995 60.5034 46.6995C60.5034 48.1995 59.9234 48.9195 59.0434 48.9195ZM68.5434 57.1595C70.5834 57.1595 72.0234 55.6595 72.0234 53.2995C72.0234 50.9395 70.5834 49.4395 68.5434 49.4395C66.5234 49.4395 65.0834 50.9395 65.0834 53.2995C65.0834 55.6595 66.5234 57.1595 68.5434 57.1595ZM68.5434 55.5195C67.6834 55.5195 67.0834 54.7995 67.0834 53.2995C67.0834 51.7995 67.6834 51.0795 68.5434 51.0795C69.4234 51.0795 70.0034 51.8195 70.0034 53.2995C70.0034 54.7795 69.4234 55.5195 68.5434 55.5195Z" fill="#2F2F2F"/>
<path d="M50 2.38045C50 1.06549 48.9333 -0.00641215 47.6198 0.0561755C39.2256 0.456166 31.0535 2.96671 23.8671 7.37238C16.003 12.1935 9.62587 19.0962 5.4412 27.3166C1.25654 35.5371 -0.572534 44.7549 0.156348 53.9504C0.88523 63.1458 4.14365 71.9604 9.57113 79.419C14.9986 86.8775 22.3836 92.6893 30.909 96.2113C39.4344 99.7333 48.768 100.828 57.8771 99.3751C66.9862 97.9219 75.5157 93.9772 82.5221 87.9773C88.9247 82.4945 93.8272 75.4909 96.7898 67.6266C97.2534 66.3961 96.5616 65.0514 95.3104 64.6469V64.6469C94.0591 64.2424 92.7229 64.9316 92.2532 66.1598C89.5649 73.189 85.16 79.4491 79.4248 84.3604C73.0857 89.7888 65.3684 93.3579 57.1269 94.6727C48.8853 95.9875 40.4407 94.9968 32.7272 91.8102C25.0137 88.6236 18.3321 83.3653 13.4215 76.6171C8.51091 69.8689 5.56282 61.8938 4.90335 53.5741C4.24389 45.2544 5.89876 36.9145 9.68489 29.4769C13.471 22.0393 19.2408 15.7941 26.356 11.4321C32.7933 7.48563 40.1048 5.21989 47.6201 4.82403C48.9332 4.75486 50 3.69541 50 2.38045V2.38045Z" fill="#FFC464"/>
</svg>
