<svg width="100" height="100" viewBox="0 0 100 100" fill="none" xmlns="http://www.w3.org/2000/svg">
<path opacity="0.1" d="M16.3341 16.3337C15.4011 15.4006 13.8835 15.3969 12.996 16.3735C5.46074 24.6653 0.912344 35.2695 0.123162 46.4922C-0.722008 58.511 2.8012 70.4309 10.0447 80.059C17.2881 89.6871 27.7647 96.3758 39.547 98.8947C51.3293 101.414 63.6249 99.5932 74.172 93.7684C84.719 87.9437 92.808 78.5063 96.9511 67.1925C101.094 55.8786 101.012 43.4492 96.721 32.1908C92.4296 20.9324 84.2172 11.6022 73.5945 5.91664C63.6755 0.607695 52.2779 -1.19011 41.2468 0.771633C39.9476 1.00267 39.1425 2.28907 39.4353 3.57574V3.57574C39.7281 4.86241 41.008 5.66146 42.3083 5.43698C52.2151 3.72678 62.4359 5.36423 71.3395 10.1297C80.947 15.2719 88.3745 23.7104 92.2558 33.8928C96.137 44.0753 96.2109 55.3168 92.4639 65.5493C88.7168 75.7819 81.4009 84.3173 71.8618 89.5854C62.3228 94.8534 51.2022 96.4998 40.546 94.2217C29.8897 91.9435 20.4145 85.8941 13.8633 77.1862C7.31206 68.4782 4.12557 57.6976 4.88996 46.8274C5.59836 36.7535 9.65577 27.2307 16.3793 19.7566C17.2619 18.7756 17.2672 17.2667 16.3341 16.3337V16.3337Z" fill="#2F2F2F"/>
<path d="M30.7762 42.7595C27.8162 42.7595 25.4762 44.5595 25.4762 47.4195C25.4762 50.0595 27.5962 51.7795 30.2962 51.7795C31.7562 51.7795 32.9562 51.3395 33.7762 50.5195C33.6762 53.2195 32.1562 54.5995 29.8362 54.5995C28.8762 54.5995 27.9762 54.4195 27.2162 53.8995L26.0162 56.2795C26.9962 56.8995 28.4162 57.2395 29.8962 57.2395C34.1362 57.2395 37.0362 54.5395 37.0362 49.6995C37.0362 45.1795 34.6562 42.7595 30.7762 42.7595ZM31.0162 49.3595C29.5762 49.3595 28.6362 48.5395 28.6362 47.2595C28.6362 45.9795 29.5962 45.1795 30.9762 45.1795C32.5162 45.1795 33.4162 46.0595 33.4162 47.2595C33.4162 48.4795 32.4362 49.3595 31.0162 49.3595ZM46.5905 57.2395C50.0505 57.2395 52.5905 54.6195 52.5905 49.9995C52.5905 45.3795 50.0505 42.7595 46.5905 42.7595C43.1505 42.7595 40.5905 45.3795 40.5905 49.9995C40.5905 54.6195 43.1505 57.2395 46.5905 57.2395ZM46.5905 54.4995C44.9905 54.4995 43.8705 53.1795 43.8705 49.9995C43.8705 46.8195 44.9905 45.4995 46.5905 45.4995C48.2105 45.4995 49.3305 46.8195 49.3305 49.9995C49.3305 53.1795 48.2105 54.4995 46.5905 54.4995ZM59.4048 50.5595C61.4448 50.5595 62.8648 49.0795 62.8648 46.6995C62.8648 44.3195 61.4448 42.8395 59.4048 42.8395C57.3648 42.8395 55.9248 44.3395 55.9248 46.6995C55.9248 49.0595 57.3648 50.5595 59.4048 50.5595ZM58.1848 56.9995H60.5648L70.1248 42.9995H67.7448L58.1848 56.9995ZM59.4048 48.9195C58.5448 48.9195 57.9448 48.1795 57.9448 46.6995C57.9448 45.2195 58.5448 44.4795 59.4048 44.4795C60.2848 44.4795 60.8648 45.1995 60.8648 46.6995C60.8648 48.1995 60.2848 48.9195 59.4048 48.9195ZM68.9048 57.1595C70.9448 57.1595 72.3848 55.6595 72.3848 53.2995C72.3848 50.9395 70.9448 49.4395 68.9048 49.4395C66.8848 49.4395 65.4448 50.9395 65.4448 53.2995C65.4448 55.6595 66.8848 57.1595 68.9048 57.1595ZM68.9048 55.5195C68.0448 55.5195 67.4448 54.7995 67.4448 53.2995C67.4448 51.7995 68.0448 51.0795 68.9048 51.0795C69.7848 51.0795 70.3648 51.8195 70.3648 53.2995C70.3648 54.7795 69.7848 55.5195 68.9048 55.5195Z" fill="#2F2F2F"/>
<path d="M50 2.38045C50 1.06549 48.9333 -0.0064135 47.6198 0.0561539C36.5694 0.58254 25.9795 4.76238 17.5323 11.9752C8.48021 19.7045 2.48248 30.4095 0.617527 42.1656C-1.24742 53.9216 1.14276 65.9573 7.35831 76.1086C13.5739 86.2599 23.207 93.8608 34.5256 97.5447C45.8443 101.229 58.1058 100.754 69.1056 96.2053C80.1054 91.657 89.1218 83.3337 94.5335 72.7321C99.9452 62.1304 101.397 49.9459 98.6286 38.3693C96.0449 27.5663 89.9439 17.9541 81.3202 11.0245C80.2951 10.2008 78.8019 10.4395 78.0279 11.5026V11.5026C77.2539 12.5657 77.4929 14.0501 78.5138 14.8789C86.2229 21.1376 91.6774 29.7767 93.9973 39.477C96.5023 49.951 95.1885 60.9751 90.2922 70.5671C85.3959 80.1591 77.2382 87.6896 67.286 91.8048C57.3339 95.9199 46.2401 96.3496 35.9994 93.0166C25.7587 89.6836 17.043 82.8066 11.4194 73.622C5.79582 64.4375 3.63327 53.5481 5.32061 42.9117C7.00795 32.2753 12.4345 22.5897 20.6245 15.5965C28.2094 9.11998 37.7038 5.34622 47.6199 4.82401C48.933 4.75486 50 3.69541 50 2.38045V2.38045Z" fill="#FFC464"/>
</svg>
