<svg width="100" height="100" viewBox="0 0 100 100" fill="none" xmlns="http://www.w3.org/2000/svg">
<path opacity="0.1" d="M16.3341 16.3337C15.4011 15.4006 13.8835 15.3969 12.996 16.3735C5.46074 24.6653 0.912344 35.2695 0.123162 46.4922C-0.722008 58.511 2.8012 70.4309 10.0447 80.059C17.2881 89.6871 27.7647 96.3758 39.547 98.8947C51.3293 101.414 63.6249 99.5932 74.172 93.7684C84.719 87.9437 92.808 78.5063 96.9511 67.1925C101.094 55.8786 101.012 43.4492 96.721 32.1908C92.4296 20.9324 84.2172 11.6022 73.5945 5.91664C63.6755 0.607695 52.2779 -1.19011 41.2468 0.771633C39.9476 1.00267 39.1425 2.28907 39.4353 3.57574V3.57574C39.7281 4.86241 41.008 5.66146 42.3083 5.43698C52.2151 3.72678 62.4359 5.36423 71.3395 10.1297C80.947 15.2719 88.3745 23.7104 92.2558 33.8928C96.137 44.0753 96.2109 55.3168 92.4639 65.5493C88.7168 75.7819 81.4009 84.3173 71.8618 89.5854C62.3228 94.8534 51.2022 96.4998 40.546 94.2217C29.8897 91.9435 20.4145 85.8941 13.8633 77.1862C7.31206 68.4782 4.12557 57.6976 4.88996 46.8274C5.59836 36.7535 9.65577 27.2307 16.3793 19.7566C17.2619 18.7756 17.2672 17.2667 16.3341 16.3337V16.3337Z" fill="#2F2F2F"/>
<path d="M35.7018 49.6395C36.7418 48.9995 37.3418 48.0195 37.3418 46.7595C37.3418 44.2995 35.1418 42.7595 31.9218 42.7595C28.7418 42.7595 26.5418 44.2995 26.5418 46.7595C26.5418 48.0195 27.1218 48.9995 28.1618 49.6395C26.8218 50.3195 26.0418 51.4395 26.0418 52.9395C26.0418 55.5795 28.3818 57.2395 31.9218 57.2395C35.4818 57.2395 37.8418 55.5795 37.8418 52.9395C37.8418 51.4395 37.0618 50.3195 35.7018 49.6395ZM31.9218 45.1395C33.2418 45.1395 34.1218 45.7995 34.1218 46.8995C34.1218 47.9595 33.2618 48.6195 31.9218 48.6195C30.6018 48.6195 29.7618 47.9595 29.7618 46.8995C29.7618 45.7995 30.6218 45.1395 31.9218 45.1395ZM31.9218 54.8595C30.3218 54.8595 29.3218 54.0795 29.3218 52.8395C29.3218 51.5995 30.3218 50.8395 31.9218 50.8395C33.5418 50.8395 34.5618 51.5995 34.5618 52.8395C34.5618 54.0795 33.5418 54.8595 31.9218 54.8595ZM47.3249 57.2395C50.7849 57.2395 53.3249 54.6195 53.3249 49.9995C53.3249 45.3795 50.7849 42.7595 47.3249 42.7595C43.8849 42.7595 41.3249 45.3795 41.3249 49.9995C41.3249 54.6195 43.8849 57.2395 47.3249 57.2395ZM47.3249 54.4995C45.7249 54.4995 44.6049 53.1795 44.6049 49.9995C44.6049 46.8195 45.7249 45.4995 47.3249 45.4995C48.9449 45.4995 50.0649 46.8195 50.0649 49.9995C50.0649 53.1795 48.9449 54.4995 47.3249 54.4995ZM60.1391 50.5595C62.1791 50.5595 63.5991 49.0795 63.5991 46.6995C63.5991 44.3195 62.1791 42.8395 60.1391 42.8395C58.0991 42.8395 56.6591 44.3395 56.6591 46.6995C56.6591 49.0595 58.0991 50.5595 60.1391 50.5595ZM58.9191 56.9995H61.2991L70.8591 42.9995H68.4791L58.9191 56.9995ZM60.1391 48.9195C59.2791 48.9195 58.6791 48.1795 58.6791 46.6995C58.6791 45.2195 59.2791 44.4795 60.1391 44.4795C61.0191 44.4795 61.5991 45.1995 61.5991 46.6995C61.5991 48.1995 61.0191 48.9195 60.1391 48.9195ZM69.6391 57.1595C71.6791 57.1595 73.1191 55.6595 73.1191 53.2995C73.1191 50.9395 71.6791 49.4395 69.6391 49.4395C67.6191 49.4395 66.1791 50.9395 66.1791 53.2995C66.1791 55.6595 67.6191 57.1595 69.6391 57.1595ZM69.6391 55.5195C68.7791 55.5195 68.1791 54.7995 68.1791 53.2995C68.1791 51.7995 68.7791 51.0795 69.6391 51.0795C70.5191 51.0795 71.0991 51.8195 71.0991 53.2995C71.0991 54.7795 70.5191 55.5195 69.6391 55.5195Z" fill="#2F2F2F"/>
<path d="M50 2.38045C50 1.06549 48.9332 -0.00641143 47.6198 0.0561701C37.9053 0.519025 28.5172 3.80703 20.62 9.54196C12.0793 15.7441 5.7205 24.49 2.45423 34.527C-0.812039 44.564 -0.818202 55.3771 2.43663 65.4178C5.69146 75.4585 12.0403 84.2116 20.5739 90.4235C29.1074 96.6354 39.3879 99.9874 49.943 99.9995C60.4981 100.012 70.7862 96.6829 79.3339 90.4905C87.8816 84.2981 94.2504 75.5595 97.5281 65.5262C100.559 56.2488 100.803 46.3046 98.2584 36.9179C97.9144 35.6488 96.5665 34.963 95.3152 35.367V35.367C94.0638 35.7711 93.3835 37.1119 93.7212 38.3828C95.9607 46.811 95.7202 55.7258 93.0016 64.0475C90.0361 73.1252 84.2739 81.0316 76.5402 86.6342C68.8066 92.2369 59.4983 95.2485 49.9484 95.2376C40.3986 95.2267 31.0972 92.1939 23.3764 86.5736C15.6555 80.9533 9.91131 73.0339 6.96646 63.9494C4.02162 54.865 4.02719 45.0816 6.98239 36.0005C9.93759 26.9195 15.6908 19.0065 23.4181 13.395C30.5018 8.25088 38.9113 5.28272 47.62 4.82403C48.9331 4.75486 50 3.69541 50 2.38045V2.38045Z" fill="#FFC464"/>
</svg>
