<svg width="100" height="100" viewBox="0 0 100 100" fill="none" xmlns="http://www.w3.org/2000/svg">
<path opacity="0.1" d="M40.4316 3.36019C40.1664 2.06755 38.9016 1.22895 37.6231 1.55554C25.7344 4.59251 15.346 11.9071 8.47875 22.143C1.16675 33.0418 -1.56684 46.3786 0.867911 59.2752C3.30266 72.1718 10.7105 83.594 21.4928 91.0768C32.2751 98.5596 45.5672 101.503 58.5005 99.2716C71.4338 97.0404 82.9713 89.8134 90.623 79.1503C98.2748 68.4872 101.427 55.2432 99.3999 42.2763C97.3727 29.3094 90.3283 17.6595 79.7871 9.84075C69.8871 2.49758 57.6483 -0.913332 45.4292 0.208817C44.1152 0.329493 43.2045 1.54341 43.3878 2.85019V2.85019C43.5711 4.15697 44.779 5.06111 46.0936 4.94707C57.0692 3.99499 68.0479 7.08299 76.9403 13.6788C86.4741 20.7503 92.8452 31.2868 94.6787 43.0144C96.5122 54.742 93.6611 66.7203 86.7406 76.3643C79.8202 86.0083 69.3854 92.5446 57.6881 94.5626C45.9908 96.5807 33.9691 93.9186 24.2173 87.1509C14.4655 80.3833 7.7656 70.0527 5.56353 58.3887C3.36147 46.7247 5.83381 34.6625 12.447 24.8053C18.6153 15.6112 27.9247 9.02305 38.5848 6.2425C39.8617 5.90945 40.6968 4.65284 40.4316 3.36019V3.36019Z" fill="#2F2F2F"/>
<path d="M33.5337 48.2195C32.0737 48.2195 30.8937 48.6395 30.0737 49.4595C30.1737 46.7795 31.6737 45.3995 34.0137 45.3995C34.9537 45.3995 35.8537 45.5795 36.6337 46.0995L37.8337 43.7195C36.8537 43.0995 35.4137 42.7595 33.9337 42.7595C29.7137 42.7595 26.7937 45.4595 26.7937 50.2995C26.7937 54.8195 29.1937 57.2395 33.0537 57.2395C36.0137 57.2395 38.3537 55.4395 38.3537 52.5795C38.3537 49.9395 36.2337 48.2195 33.5337 48.2195ZM32.8737 54.8195C31.3137 54.8195 30.4137 53.9395 30.4137 52.7395C30.4137 51.5195 31.4137 50.6395 32.8337 50.6395C34.2737 50.6395 35.2137 51.4595 35.2137 52.7395C35.2137 54.0195 34.2537 54.8195 32.8737 54.8195ZM46.328 48.2595H45.188L45.408 45.5995H51.248V42.9995H42.708L41.988 50.8795H45.568C48.108 50.8795 48.828 51.5995 48.828 52.6995C48.828 53.8395 47.828 54.5195 46.208 54.5195C44.748 54.5195 43.288 54.0595 42.228 53.2595L40.948 55.7395C42.308 56.6995 44.348 57.2395 46.288 57.2395C50.288 57.2395 52.108 55.0795 52.108 52.5995C52.108 50.1195 50.468 48.2595 46.328 48.2595ZM58.4673 50.5595C60.5073 50.5595 61.9273 49.0795 61.9273 46.6995C61.9273 44.3195 60.5073 42.8395 58.4673 42.8395C56.4273 42.8395 54.9873 44.3395 54.9873 46.6995C54.9873 49.0595 56.4273 50.5595 58.4673 50.5595ZM57.2473 56.9995H59.6273L69.1873 42.9995H66.8073L57.2473 56.9995ZM58.4673 48.9195C57.6073 48.9195 57.0073 48.1795 57.0073 46.6995C57.0073 45.2195 57.6073 44.4795 58.4673 44.4795C59.3473 44.4795 59.9273 45.1995 59.9273 46.6995C59.9273 48.1995 59.3473 48.9195 58.4673 48.9195ZM67.9673 57.1595C70.0073 57.1595 71.4473 55.6595 71.4473 53.2995C71.4473 50.9395 70.0073 49.4395 67.9673 49.4395C65.9473 49.4395 64.5073 50.9395 64.5073 53.2995C64.5073 55.6595 65.9473 57.1595 67.9673 57.1595ZM67.9673 55.5195C67.1073 55.5195 66.5073 54.7995 66.5073 53.2995C66.5073 51.7995 67.1073 51.0795 67.9673 51.0795C68.8473 51.0795 69.4273 51.8195 69.4273 53.2995C69.4273 54.7795 68.8473 55.5195 67.9673 55.5195Z" fill="#2F2F2F"/>
<path d="M50 2.38045C50 1.06549 48.9334 -0.00641322 47.6199 0.0561753C39.8854 0.424736 32.3304 2.5856 25.5565 6.38167C18.0893 10.5663 11.8214 16.5979 7.35312 23.8989C2.88479 31.1999 0.365642 39.5257 0.0368972 48.0792C-0.291848 56.6327 1.58082 65.1274 5.47558 72.7498C9.37034 80.3722 15.1568 86.8671 22.2807 91.6125C29.4047 96.3579 37.6277 99.195 46.1623 99.852C54.6968 100.509 63.2571 98.964 71.0235 95.3648C78.0687 92.0999 84.2466 87.2438 89.0772 81.192C89.8976 80.1643 89.6539 78.6719 88.5883 77.9014V77.9014C87.5227 77.1309 86.0391 77.3746 85.2137 78.3982C80.8643 83.7914 75.3267 88.1222 69.0213 91.0443C61.9946 94.3007 54.2495 95.6986 46.5278 95.1042C38.806 94.5097 31.3662 91.9429 24.9207 87.6494C18.4752 83.3559 13.2398 77.4796 9.71599 70.5831C6.19216 63.6866 4.49784 56.001 4.79528 48.2621C5.09271 40.5232 7.37195 32.9903 11.4147 26.3846C15.4575 19.779 21.1284 14.3218 27.8845 10.5357C33.947 7.13826 40.7012 5.18851 47.6201 4.82404C48.9332 4.75486 50 3.69541 50 2.38045V2.38045Z" fill="#FFC464"/>
</svg>
