<svg width="100" height="100" viewBox="0 0 100 100" fill="none" xmlns="http://www.w3.org/2000/svg">
<path opacity="0.1" d="M16.3341 16.3337C15.4011 15.4006 13.8835 15.3969 12.996 16.3735C5.46074 24.6653 0.912344 35.2695 0.123162 46.4922C-0.722008 58.511 2.8012 70.4309 10.0447 80.059C17.2881 89.6871 27.7647 96.3758 39.547 98.8947C51.3293 101.414 63.6249 99.5932 74.172 93.7684C84.719 87.9437 92.808 78.5063 96.9511 67.1925C101.094 55.8786 101.012 43.4492 96.721 32.1908C92.4296 20.9324 84.2172 11.6022 73.5945 5.91664C63.6755 0.607695 52.2779 -1.19011 41.2468 0.771633C39.9476 1.00267 39.1425 2.28907 39.4353 3.57574V3.57574C39.7281 4.86241 41.008 5.66146 42.3083 5.43698C52.2151 3.72678 62.4359 5.36423 71.3395 10.1297C80.947 15.2719 88.3745 23.7104 92.2558 33.8928C96.137 44.0753 96.2109 55.3168 92.4639 65.5493C88.7168 75.7819 81.4009 84.3173 71.8618 89.5854C62.3228 94.8534 51.2022 96.4998 40.546 94.2217C29.8897 91.9435 20.4145 85.8941 13.8633 77.1862C7.31206 68.4782 4.12557 57.6976 4.88996 46.8274C5.59836 36.7535 9.65577 27.2307 16.3793 19.7566C17.2619 18.7756 17.2672 17.2667 16.3341 16.3337V16.3337Z" fill="#2F2F2F"/>
<path d="M36.6393 49.6395C37.6793 48.9995 38.2793 48.0195 38.2793 46.7595C38.2793 44.2995 36.0793 42.7595 32.8593 42.7595C29.6793 42.7595 27.4793 44.2995 27.4793 46.7595C27.4793 48.0195 28.0593 48.9995 29.0993 49.6395C27.7593 50.3195 26.9793 51.4395 26.9793 52.9395C26.9793 55.5795 29.3193 57.2395 32.8593 57.2395C36.4193 57.2395 38.7793 55.5795 38.7793 52.9395C38.7793 51.4395 37.9993 50.3195 36.6393 49.6395ZM32.8593 45.1395C34.1793 45.1395 35.0593 45.7995 35.0593 46.8995C35.0593 47.9595 34.1993 48.6195 32.8593 48.6195C31.5393 48.6195 30.6993 47.9595 30.6993 46.8995C30.6993 45.7995 31.5593 45.1395 32.8593 45.1395ZM32.8593 54.8595C31.2593 54.8595 30.2593 54.0795 30.2593 52.8395C30.2593 51.5995 31.2593 50.8395 32.8593 50.8395C34.4793 50.8395 35.4993 51.5995 35.4993 52.8395C35.4993 54.0795 34.4793 54.8595 32.8593 54.8595ZM47.0624 48.2595H45.9224L46.1424 45.5995H51.9824V42.9995H43.4424L42.7224 50.8795H46.3024C48.8424 50.8795 49.5624 51.5995 49.5624 52.6995C49.5624 53.8395 48.5624 54.5195 46.9424 54.5195C45.4824 54.5195 44.0224 54.0595 42.9624 53.2595L41.6824 55.7395C43.0424 56.6995 45.0824 57.2395 47.0224 57.2395C51.0224 57.2395 52.8424 55.0795 52.8424 52.5995C52.8424 50.1195 51.2024 48.2595 47.0624 48.2595ZM59.2016 50.5595C61.2416 50.5595 62.6616 49.0795 62.6616 46.6995C62.6616 44.3195 61.2416 42.8395 59.2016 42.8395C57.1616 42.8395 55.7216 44.3395 55.7216 46.6995C55.7216 49.0595 57.1616 50.5595 59.2016 50.5595ZM57.9816 56.9995H60.3616L69.9216 42.9995H67.5416L57.9816 56.9995ZM59.2016 48.9195C58.3416 48.9195 57.7416 48.1795 57.7416 46.6995C57.7416 45.2195 58.3416 44.4795 59.2016 44.4795C60.0816 44.4795 60.6616 45.1995 60.6616 46.6995C60.6616 48.1995 60.0816 48.9195 59.2016 48.9195ZM68.7016 57.1595C70.7416 57.1595 72.1816 55.6595 72.1816 53.2995C72.1816 50.9395 70.7416 49.4395 68.7016 49.4395C66.6816 49.4395 65.2416 50.9395 65.2416 53.2995C65.2416 55.6595 66.6816 57.1595 68.7016 57.1595ZM68.7016 55.5195C67.8416 55.5195 67.2416 54.7995 67.2416 53.2995C67.2416 51.7995 67.8416 51.0795 68.7016 51.0795C69.5816 51.0795 70.1616 51.8195 70.1616 53.2995C70.1616 54.7795 69.5816 55.5195 68.7016 55.5195Z" fill="#2F2F2F"/>
<path d="M50 2.38045C50 1.06549 48.9332 -0.00641206 47.6198 0.0561636C37.2353 0.550894 27.2407 4.27298 19.0453 10.7336C10.2255 17.6866 4.00336 27.4065 1.38153 38.3272C-1.24029 49.2478 -0.109115 60.7331 4.5928 70.9324C9.29471 81.1317 17.2935 89.451 27.3003 94.5498C37.3072 99.6485 48.7392 101.23 59.7543 99.0388C70.7695 96.8478 80.7262 91.0121 88.0201 82.4721C95.3141 73.9321 99.5205 63.1851 99.9614 51.9628C100.371 41.5352 97.5078 31.2615 91.8043 22.5695C91.0829 21.4701 89.5887 21.2371 88.5248 22.01V22.01C87.461 22.7829 87.231 24.2688 87.9469 25.3718C93.0247 33.1955 95.571 42.4171 95.2032 51.7758C94.8042 61.9293 90.9985 71.6528 84.3992 79.3795C77.7999 87.1062 68.7914 92.3861 58.8253 94.3684C48.8593 96.3507 38.516 94.9201 29.4622 90.3069C20.4084 85.6937 13.1714 78.1667 8.91729 68.9388C4.66317 59.7108 3.63972 49.3194 6.01185 39.4388C8.38398 29.5582 14.0135 20.764 21.9934 14.4732C29.3486 8.67487 38.3057 5.31458 47.6199 4.82402C48.9331 4.75486 50 3.69541 50 2.38045V2.38045Z" fill="#FFC464"/>
</svg>
