<svg width="100" height="100" viewBox="0 0 100 100" fill="none" xmlns="http://www.w3.org/2000/svg">
<path opacity="0.1" d="M16.3341 16.3337C15.4011 15.4006 13.8835 15.3969 12.996 16.3735C5.46074 24.6653 0.912344 35.2695 0.123162 46.4922C-0.722008 58.511 2.8012 70.4309 10.0447 80.059C17.2881 89.6871 27.7647 96.3758 39.547 98.8947C51.3293 101.414 63.6249 99.5932 74.172 93.7684C84.719 87.9437 92.808 78.5063 96.9511 67.1925C101.094 55.8786 101.012 43.4492 96.721 32.1908C92.4296 20.9324 84.2172 11.6022 73.5945 5.91664C63.6755 0.607695 52.2779 -1.19011 41.2468 0.771633C39.9476 1.00267 39.1425 2.28907 39.4353 3.57574V3.57574C39.7281 4.86241 41.008 5.66146 42.3083 5.43698C52.2151 3.72678 62.4359 5.36423 71.3395 10.1297C80.947 15.2719 88.3745 23.7104 92.2558 33.8928C96.137 44.0753 96.2109 55.3168 92.4639 65.5493C88.7168 75.7819 81.4009 84.3173 71.8618 89.5854C62.3228 94.8534 51.2022 96.4998 40.546 94.2217C29.8897 91.9435 20.4145 85.8941 13.8633 77.1862C7.31206 68.4782 4.12557 57.6976 4.88996 46.8274C5.59836 36.7535 9.65577 27.2307 16.3793 19.7566C17.2619 18.7756 17.2672 17.2667 16.3341 16.3337V16.3337Z" fill="#2F2F2F"/>
<path d="M26.8657 42.9995V47.9195H29.7457V45.6395H34.3857L29.3657 56.9995H32.8857L38.0857 45.0995V42.9995H26.8657ZM45.996 48.2595H44.856L45.076 45.5995H50.916V42.9995H42.376L41.656 50.8795H45.236C47.776 50.8795 48.496 51.5995 48.496 52.6995C48.496 53.8395 47.496 54.5195 45.876 54.5195C44.416 54.5195 42.956 54.0595 41.896 53.2595L40.616 55.7395C41.976 56.6995 44.016 57.2395 45.956 57.2395C49.956 57.2395 51.776 55.0795 51.776 52.5995C51.776 50.1195 50.136 48.2595 45.996 48.2595ZM58.1352 50.5595C60.1752 50.5595 61.5952 49.0795 61.5952 46.6995C61.5952 44.3195 60.1752 42.8395 58.1352 42.8395C56.0952 42.8395 54.6552 44.3395 54.6552 46.6995C54.6552 49.0595 56.0952 50.5595 58.1352 50.5595ZM56.9152 56.9995H59.2952L68.8552 42.9995H66.4752L56.9152 56.9995ZM58.1352 48.9195C57.2752 48.9195 56.6752 48.1795 56.6752 46.6995C56.6752 45.2195 57.2752 44.4795 58.1352 44.4795C59.0152 44.4795 59.5952 45.1995 59.5952 46.6995C59.5952 48.1995 59.0152 48.9195 58.1352 48.9195ZM67.6352 57.1595C69.6752 57.1595 71.1152 55.6595 71.1152 53.2995C71.1152 50.9395 69.6752 49.4395 67.6352 49.4395C65.6152 49.4395 64.1752 50.9395 64.1752 53.2995C64.1752 55.6595 65.6152 57.1595 67.6352 57.1595ZM67.6352 55.5195C66.7752 55.5195 66.1752 54.7995 66.1752 53.2995C66.1752 51.7995 66.7752 51.0795 67.6352 51.0795C68.5152 51.0795 69.0952 51.8195 69.0952 53.2995C69.0952 54.7795 68.5152 55.5195 67.6352 55.5195Z" fill="#2F2F2F"/>
<path d="M50 2.38045C50 1.06549 48.9333 -0.00641151 47.6198 0.0561739C38.5659 0.487583 29.7829 3.37366 22.2215 8.42603C13.999 13.9201 7.59041 21.729 3.80603 30.8653C0.0216488 40.0016 -0.968516 50.055 0.960746 59.754C2.89001 69.4531 7.65205 78.3622 14.6447 85.3548C21.6373 92.3475 30.5465 97.1095 40.2455 99.0388C49.9446 100.968 59.9979 99.9779 69.1342 96.1935C78.2705 92.4091 86.0794 86.0005 91.5735 77.778C96.6259 70.2166 99.5119 61.4336 99.9433 52.3797C100.006 51.0662 98.934 49.9995 97.6191 49.9995V49.9995C96.3041 49.9995 95.2447 51.0663 95.1755 52.3794C94.7482 60.491 92.1432 68.3542 87.6141 75.1324C82.6433 82.5718 75.5781 88.3701 67.3119 91.7941C59.0457 95.218 49.9498 96.1139 41.1745 94.3684C32.3992 92.6229 24.3385 88.3143 18.0118 81.9877C11.6852 75.661 7.37667 67.6004 5.63114 58.825C3.88562 50.0497 4.78148 40.9538 8.20545 32.6876C11.6294 24.4215 17.4277 17.3562 24.8671 12.3854C31.6453 7.85634 39.5085 5.25129 47.6201 4.82403C48.9332 4.75486 50 3.69541 50 2.38045V2.38045Z" fill="#FFC464"/>
</svg>
