<svg width="27" height="25" viewBox="0 0 27 25" fill="none" xmlns="http://www.w3.org/2000/svg">
<path d="M21.8661 9.68179C21.2872 7.44185 19.9494 5.47195 18.0809 4.10774C16.2124 2.74353 13.9286 2.06942 11.6187 2.20026C9.30889 2.3311 7.11587 3.25881 5.41334 4.8253C3.7108 6.3918 2.6041 8.50016 2.2818 10.7912C1.9595 13.0821 2.44154 15.414 3.64579 17.3894C4.85004 19.3649 6.70199 20.8616 8.88608 21.6247C11.0702 22.3877 13.4513 22.3699 15.6237 21.5742C17.7961 20.7785 19.6254 19.2541 20.7999 17.2608L19.2021 16.3194C18.2454 17.943 16.7554 19.1846 14.9858 19.8328C13.2163 20.4809 11.2768 20.4955 9.49775 19.8739C7.7187 19.2524 6.21021 18.0332 5.22929 16.4241C4.24838 14.815 3.85573 12.9156 4.11826 11.0495C4.38079 9.18339 5.28225 7.46604 6.66904 6.19005C8.05583 4.91407 9.84215 4.15841 11.7236 4.05184C13.6051 3.94526 15.4653 4.49436 16.9873 5.60557C18.5094 6.71678 19.599 8.32135 20.0706 10.1459L21.8661 9.68179Z" fill="#96317D"/>
<path fill-rule="evenodd" clip-rule="evenodd" d="M13.8064 8.96916L14.4496 7.0754L20.1982 9.02782L22.1506 3.27926L24.0444 3.92245L21.4487 11.5648L13.8064 8.96916Z" fill="#96317D"/>
</svg>
